# xmcd CD database file
# Copyright (C) 1995-1998 Ti Kan
#
# Track frame offsets:
#	150
#	19862
#	38556
#	58074
#	89917
#	110021
#	123069
#	143633
#	160119
#	184743
#	210654
#	234127
#	256397
#	282364
#	299547
#	311756
#
# Disc length: 4301 seconds
#
# Revision: 1
# Processed by: cddbd v1.5.2PL0 Copyright (c) Steve Scherf et al.
# Submitted via: CDex 1.30Release
#
DISCID=e710cb10
DTITLE=Nighthawk - Finest Midnight Music CD2 -REX
DYEAR=2008
DGENRE=Blues
TTITLE0=Gladys Knight and the Pips - Neither one of us wants to be the first t
TTITLE0=o say goodbye
TTITLE1=Johnny Gill - Just another lonely night
TTITLE2=Incognito - Closer to the feeling
TTITLE3=The Isley Brothers - If you leave me now
TTITLE4=Billy Preston - Will it go round in circles
TTITLE5=Diana Ross, Marvin Gaye - Stop look listen
TTITLE6=The Commitments - Try a little tenderness
TTITLE7=Billy Preston, Syreeta - With you I'm born again
TTITLE8=Dru Hill - Never make a promise
TTITLE9=Sammy Davis jr. - Mr. Bojangles
TTITLE10=The love unlimited orchestra - Midnight and you
TTITLE11=Sam Brown - Stop
TTITLE12=Santana - Blues Latino
TTITLE13=The Spencer Davis Group - Stevie's Blues
TTITLE14=Jimmy Witherspoon - Ain't nobody's business
TTITLE15=Little Walter - Blue midnight
EXTD=ID3G:   0
EXTT0=
EXTT1=
EXTT2=
EXTT3=
EXTT4=
EXTT5=
EXTT6=
EXTT7=
EXTT8=
EXTT9=
EXTT10=
EXTT11=
EXTT12=
EXTT13=
EXTT14=
EXTT15=
PLAYORDER=
